ISO-10303-21;
HEADER;
FILE_NAME('Open CASCADE Shape Model','2026-05-23T13:41:02',('Author'),(
    'Open CASCADE'),'Open CASCADE STEP processor 7.8','Open CASCADE 7.8'
  ,'Unknown');
FILE_DESCRIPTION(('Open CASCADE Model'),'2;1');
FILE_SCHEMA(('AUTOMOTIVE_DESIGN { 1 0 10303 214 1 1 1 1 }'));
ENDSEC;
DATA;
#1 = APPLICATION_PROTOCOL_DEFINITION('international standard',
  'automotive_design',2000,#2);
#2 = APPLICATION_CONTEXT(
  'core data for automotive mechanical design processes');
#3 = SHAPE_DEFINITION_REPRESENTATION(#4,#10);
#4 = PRODUCT_DEFINITION_SHAPE('','',#5);
#5 = PRODUCT_DEFINITION('design','',#6,#9);
#6 = PRODUCT_DEFINITION_FORMATION('','',#7);
#7 = PRODUCT('Open CASCADE STEP translator 7.8 1',
  'Open CASCADE STEP translator 7.8 1','',(#8));
#8 = PRODUCT_CONTEXT('',#2,'mechanical');
#9 = PRODUCT_DEFINITION_CONTEXT('part definition',#2,'design');
#10 = SHAPE_REPRESENTATION('',(#11,#15,#19),#23);
#11 = AXIS2_PLACEMENT_3D('',#12,#13,#14);
#12 = CARTESIAN_POINT('',(0.,0.,0.));
#13 = DIRECTION('',(0.,0.,1.));
#14 = DIRECTION('',(1.,0.,-0.));
#15 = AXIS2_PLACEMENT_3D('',#16,#17,#18);
#16 = CARTESIAN_POINT('',(0.,0.,0.));
#17 = DIRECTION('',(0.,0.,1.));
#18 = DIRECTION('',(1.,0.,-0.));
#19 = AXIS2_PLACEMENT_3D('',#20,#21,#22);
#20 = CARTESIAN_POINT('',(0.,0.,0.));
#21 = DIRECTION('',(0.,0.,1.));
#22 = DIRECTION('',(1.,0.,-0.));
#23 = ( GEOMETRIC_REPRESENTATION_CONTEXT(3) 
GLOBAL_UNCERTAINTY_ASSIGNED_CONTEXT((#27)) GLOBAL_UNIT_ASSIGNED_CONTEXT(
(#24,#25,#26)) REPRESENTATION_CONTEXT('Context #1',
  '3D Context with UNIT and UNCERTAINTY') );
#24 = ( LENGTH_UNIT() NAMED_UNIT(*) SI_UNIT(.MILLI.,.METRE.) );
#25 = ( NAMED_UNIT(*) PLANE_ANGLE_UNIT() SI_UNIT($,.RADIAN.) );
#26 = ( NAMED_UNIT(*) SI_UNIT($,.STERADIAN.) SOLID_ANGLE_UNIT() );
#27 = UNCERTAINTY_MEASURE_WITH_UNIT(LENGTH_MEASURE(1.E-07),#24,
  'distance_accuracy_value','confusion accuracy');
#28 = PRODUCT_RELATED_PRODUCT_CATEGORY('part',$,(#7));
#29 = SHAPE_DEFINITION_REPRESENTATION(#30,#36);
#30 = PRODUCT_DEFINITION_SHAPE('','',#31);
#31 = PRODUCT_DEFINITION('design','',#32,#35);
#32 = PRODUCT_DEFINITION_FORMATION('','',#33);
#33 = PRODUCT('Open CASCADE STEP translator 7.8 1.1',
  'Open CASCADE STEP translator 7.8 1.1','',(#34));
#34 = PRODUCT_CONTEXT('',#2,'mechanical');
#35 = PRODUCT_DEFINITION_CONTEXT('part definition',#2,'design');
#36 = ADVANCED_BREP_SHAPE_REPRESENTATION('',(#11,#37),#240);
#37 = MANIFOLD_SOLID_BREP('',#38);
#38 = CLOSED_SHELL('',(#39,#232,#236));
#39 = ADVANCED_FACE('',(#40),#54,.F.);
#40 = FACE_BOUND('',#41,.F.);
#41 = EDGE_LOOP('',(#42,#95,#163,#164));
#42 = ORIENTED_EDGE('',*,*,#43,.T.);
#43 = EDGE_CURVE('',#44,#46,#48,.T.);
#44 = VERTEX_POINT('',#45);
#45 = CARTESIAN_POINT('',(0.176666666667,0.104166666667,-4.75E-02));
#46 = VERTEX_POINT('',#47);
#47 = CARTESIAN_POINT('',(0.176666666667,0.104166666667,4.75E-02));
#48 = SEAM_CURVE('',#49,(#53,#88),.PCURVE_S1.);
#49 = LINE('',#50,#51);
#50 = CARTESIAN_POINT('',(0.176666666667,0.104166666667,-4.75E-02));
#51 = VECTOR('',#52,1.);
#52 = DIRECTION('',(0.,0.,1.));
#53 = PCURVE('',#54,#82);
#54 = SURFACE_OF_LINEAR_EXTRUSION('',#55,#80);
#55 = B_SPLINE_CURVE_WITH_KNOTS('',3,(#56,#57,#58,#59,#60,#61,#62,#63,
    #64,#65,#66,#67,#68,#69,#70,#71,#72,#73,#74,#75,#76,#77,#78,#79),
  .UNSPECIFIED.,.T.,.F.,(1,1,1,1,1,1,1,1,1,1,1,1,1,1,1,1,1,1,1,1,1,1,1,1
    ,1,1,1,1),(-3.,-2.,-1.,0.,1.,2.,3.,4.,5.,6.,7.,8.,9.,10.,11.,12.,13.
    ,14.,15.,16.,17.,18.,19.,20.,21.,22.,23.,24.),.UNIFORM_KNOTS.);
#56 = CARTESIAN_POINT('',(0.22,4.5E-02,-4.75E-02));
#57 = CARTESIAN_POINT('',(0.18,0.11,-4.75E-02));
#58 = CARTESIAN_POINT('',(0.12,0.14,-4.75E-02));
#59 = CARTESIAN_POINT('',(6.E-02,0.13,-4.75E-02));
#60 = CARTESIAN_POINT('',(0.,0.115,-4.75E-02));
#61 = CARTESIAN_POINT('',(-6.E-02,0.135,-4.75E-02));
#62 = CARTESIAN_POINT('',(-0.12,0.175,-4.75E-02));
#63 = CARTESIAN_POINT('',(-0.18,0.185,-4.75E-02));
#64 = CARTESIAN_POINT('',(-0.24,0.14,-4.75E-02));
#65 = CARTESIAN_POINT('',(-0.26,7.E-02,-4.75E-02));
#66 = CARTESIAN_POINT('',(-0.27,0.,-4.75E-02));
#67 = CARTESIAN_POINT('',(-0.26,-7.E-02,-4.75E-02));
#68 = CARTESIAN_POINT('',(-0.24,-0.14,-4.75E-02));
#69 = CARTESIAN_POINT('',(-0.18,-0.185,-4.75E-02));
#70 = CARTESIAN_POINT('',(-0.12,-0.175,-4.75E-02));
#71 = CARTESIAN_POINT('',(-6.E-02,-0.135,-4.75E-02));
#72 = CARTESIAN_POINT('',(0.,-0.115,-4.75E-02));
#73 = CARTESIAN_POINT('',(6.E-02,-0.13,-4.75E-02));
#74 = CARTESIAN_POINT('',(0.12,-0.14,-4.75E-02));
#75 = CARTESIAN_POINT('',(0.18,-0.11,-4.75E-02));
#76 = CARTESIAN_POINT('',(0.22,-4.5E-02,-4.75E-02));
#77 = CARTESIAN_POINT('',(0.22,4.5E-02,-4.75E-02));
#78 = CARTESIAN_POINT('',(0.18,0.11,-4.75E-02));
#79 = CARTESIAN_POINT('',(0.12,0.14,-4.75E-02));
#80 = VECTOR('',#81,1.);
#81 = DIRECTION('',(-0.,-0.,-1.));
#82 = DEFINITIONAL_REPRESENTATION('',(#83),#87);
#83 = LINE('',#84,#85);
#84 = CARTESIAN_POINT('',(0.,0.));
#85 = VECTOR('',#86,1.);
#86 = DIRECTION('',(0.,-1.));
#87 = ( GEOMETRIC_REPRESENTATION_CONTEXT(2) 
PARAMETRIC_REPRESENTATION_CONTEXT() REPRESENTATION_CONTEXT('2D SPACE',''
  ) );
#88 = PCURVE('',#54,#89);
#89 = DEFINITIONAL_REPRESENTATION('',(#90),#94);
#90 = LINE('',#91,#92);
#91 = CARTESIAN_POINT('',(21.,0.));
#92 = VECTOR('',#93,1.);
#93 = DIRECTION('',(0.,-1.));
#94 = ( GEOMETRIC_REPRESENTATION_CONTEXT(2) 
PARAMETRIC_REPRESENTATION_CONTEXT() REPRESENTATION_CONTEXT('2D SPACE',''
  ) );
#95 = ORIENTED_EDGE('',*,*,#96,.T.);
#96 = EDGE_CURVE('',#46,#46,#97,.T.);
#97 = SURFACE_CURVE('',#98,(#123,#130),.PCURVE_S1.);
#98 = B_SPLINE_CURVE_WITH_KNOTS('',3,(#99,#100,#101,#102,#103,#104,#105,
    #106,#107,#108,#109,#110,#111,#112,#113,#114,#115,#116,#117,#118,
    #119,#120,#121,#122),.UNSPECIFIED.,.T.,.F.,(1,1,1,1,1,1,1,1,1,1,1,1,
    1,1,1,1,1,1,1,1,1,1,1,1,1,1,1,1),(-3.,-2.,-1.,0.,1.,2.,3.,4.,5.,6.,
    7.,8.,9.,10.,11.,12.,13.,14.,15.,16.,17.,18.,19.,20.,21.,22.,23.,24.
    ),.UNIFORM_KNOTS.);
#99 = CARTESIAN_POINT('',(0.22,4.5E-02,4.75E-02));
#100 = CARTESIAN_POINT('',(0.18,0.11,4.75E-02));
#101 = CARTESIAN_POINT('',(0.12,0.14,4.75E-02));
#102 = CARTESIAN_POINT('',(6.E-02,0.13,4.75E-02));
#103 = CARTESIAN_POINT('',(0.,0.115,4.75E-02));
#104 = CARTESIAN_POINT('',(-6.E-02,0.135,4.75E-02));
#105 = CARTESIAN_POINT('',(-0.12,0.175,4.75E-02));
#106 = CARTESIAN_POINT('',(-0.18,0.185,4.75E-02));
#107 = CARTESIAN_POINT('',(-0.24,0.14,4.75E-02));
#108 = CARTESIAN_POINT('',(-0.26,7.E-02,4.75E-02));
#109 = CARTESIAN_POINT('',(-0.27,0.,4.75E-02));
#110 = CARTESIAN_POINT('',(-0.26,-7.E-02,4.75E-02));
#111 = CARTESIAN_POINT('',(-0.24,-0.14,4.75E-02));
#112 = CARTESIAN_POINT('',(-0.18,-0.185,4.75E-02));
#113 = CARTESIAN_POINT('',(-0.12,-0.175,4.75E-02));
#114 = CARTESIAN_POINT('',(-6.E-02,-0.135,4.75E-02));
#115 = CARTESIAN_POINT('',(0.,-0.115,4.75E-02));
#116 = CARTESIAN_POINT('',(6.E-02,-0.13,4.75E-02));
#117 = CARTESIAN_POINT('',(0.12,-0.14,4.75E-02));
#118 = CARTESIAN_POINT('',(0.18,-0.11,4.75E-02));
#119 = CARTESIAN_POINT('',(0.22,-4.5E-02,4.75E-02));
#120 = CARTESIAN_POINT('',(0.22,4.5E-02,4.75E-02));
#121 = CARTESIAN_POINT('',(0.18,0.11,4.75E-02));
#122 = CARTESIAN_POINT('',(0.12,0.14,4.75E-02));
#123 = PCURVE('',#54,#124);
#124 = DEFINITIONAL_REPRESENTATION('',(#125),#129);
#125 = LINE('',#126,#127);
#126 = CARTESIAN_POINT('',(0.,-9.5E-02));
#127 = VECTOR('',#128,1.);
#128 = DIRECTION('',(1.,0.));
#129 = ( GEOMETRIC_REPRESENTATION_CONTEXT(2) 
PARAMETRIC_REPRESENTATION_CONTEXT() REPRESENTATION_CONTEXT('2D SPACE',''
  ) );
#130 = PCURVE('',#131,#136);
#131 = PLANE('',#132);
#132 = AXIS2_PLACEMENT_3D('',#133,#134,#135);
#133 = CARTESIAN_POINT('',(-3.849575447355E-02,-2.624368389236E-18,
    4.75E-02));
#134 = DIRECTION('',(0.,0.,1.));
#135 = DIRECTION('',(1.,0.,-0.));
#136 = DEFINITIONAL_REPRESENTATION('',(#137),#162);
#137 = B_SPLINE_CURVE_WITH_KNOTS('',3,(#138,#139,#140,#141,#142,#143,
    #144,#145,#146,#147,#148,#149,#150,#151,#152,#153,#154,#155,#156,
    #157,#158,#159,#160,#161),.UNSPECIFIED.,.T.,.F.,(1,1,1,1,1,1,1,1,1,1
    ,1,1,1,1,1,1,1,1,1,1,1,1,1,1,1,1,1,1),(-3.,-2.,-1.,0.,1.,2.,3.,4.,5.
    ,6.,7.,8.,9.,10.,11.,12.,13.,14.,15.,16.,17.,18.,19.,20.,21.,22.,23.
    ,24.),.UNIFORM_KNOTS.);
#138 = CARTESIAN_POINT('',(0.258495754474,4.5E-02));
#139 = CARTESIAN_POINT('',(0.218495754474,0.11));
#140 = CARTESIAN_POINT('',(0.158495754474,0.14));
#141 = CARTESIAN_POINT('',(9.849575447355E-02,0.13));
#142 = CARTESIAN_POINT('',(3.849575447355E-02,0.115));
#143 = CARTESIAN_POINT('',(-2.150424552645E-02,0.135));
#144 = CARTESIAN_POINT('',(-8.150424552645E-02,0.175));
#145 = CARTESIAN_POINT('',(-0.141504245526,0.185));
#146 = CARTESIAN_POINT('',(-0.201504245526,0.14));
#147 = CARTESIAN_POINT('',(-0.221504245526,7.E-02));
#148 = CARTESIAN_POINT('',(-0.231504245526,2.624368389236E-18));
#149 = CARTESIAN_POINT('',(-0.221504245526,-7.E-02));
#150 = CARTESIAN_POINT('',(-0.201504245526,-0.14));
#151 = CARTESIAN_POINT('',(-0.141504245526,-0.185));
#152 = CARTESIAN_POINT('',(-8.150424552645E-02,-0.175));
#153 = CARTESIAN_POINT('',(-2.150424552645E-02,-0.135));
#154 = CARTESIAN_POINT('',(3.849575447355E-02,-0.115));
#155 = CARTESIAN_POINT('',(9.849575447355E-02,-0.13));
#156 = CARTESIAN_POINT('',(0.158495754474,-0.14));
#157 = CARTESIAN_POINT('',(0.218495754474,-0.11));
#158 = CARTESIAN_POINT('',(0.258495754474,-4.5E-02));
#159 = CARTESIAN_POINT('',(0.258495754474,4.5E-02));
#160 = CARTESIAN_POINT('',(0.218495754474,0.11));
#161 = CARTESIAN_POINT('',(0.158495754474,0.14));
#162 = ( GEOMETRIC_REPRESENTATION_CONTEXT(2) 
PARAMETRIC_REPRESENTATION_CONTEXT() REPRESENTATION_CONTEXT('2D SPACE',''
  ) );
#163 = ORIENTED_EDGE('',*,*,#43,.F.);
#164 = ORIENTED_EDGE('',*,*,#165,.F.);
#165 = EDGE_CURVE('',#44,#44,#166,.T.);
#166 = SURFACE_CURVE('',#167,(#192,#199),.PCURVE_S1.);
#167 = B_SPLINE_CURVE_WITH_KNOTS('',3,(#168,#169,#170,#171,#172,#173,
    #174,#175,#176,#177,#178,#179,#180,#181,#182,#183,#184,#185,#186,
    #187,#188,#189,#190,#191),.UNSPECIFIED.,.T.,.F.,(1,1,1,1,1,1,1,1,1,1
    ,1,1,1,1,1,1,1,1,1,1,1,1,1,1,1,1,1,1),(-3.,-2.,-1.,0.,1.,2.,3.,4.,5.
    ,6.,7.,8.,9.,10.,11.,12.,13.,14.,15.,16.,17.,18.,19.,20.,21.,22.,23.
    ,24.),.UNIFORM_KNOTS.);
#168 = CARTESIAN_POINT('',(0.22,4.5E-02,-4.75E-02));
#169 = CARTESIAN_POINT('',(0.18,0.11,-4.75E-02));
#170 = CARTESIAN_POINT('',(0.12,0.14,-4.75E-02));
#171 = CARTESIAN_POINT('',(6.E-02,0.13,-4.75E-02));
#172 = CARTESIAN_POINT('',(0.,0.115,-4.75E-02));
#173 = CARTESIAN_POINT('',(-6.E-02,0.135,-4.75E-02));
#174 = CARTESIAN_POINT('',(-0.12,0.175,-4.75E-02));
#175 = CARTESIAN_POINT('',(-0.18,0.185,-4.75E-02));
#176 = CARTESIAN_POINT('',(-0.24,0.14,-4.75E-02));
#177 = CARTESIAN_POINT('',(-0.26,7.E-02,-4.75E-02));
#178 = CARTESIAN_POINT('',(-0.27,0.,-4.75E-02));
#179 = CARTESIAN_POINT('',(-0.26,-7.E-02,-4.75E-02));
#180 = CARTESIAN_POINT('',(-0.24,-0.14,-4.75E-02));
#181 = CARTESIAN_POINT('',(-0.18,-0.185,-4.75E-02));
#182 = CARTESIAN_POINT('',(-0.12,-0.175,-4.75E-02));
#183 = CARTESIAN_POINT('',(-6.E-02,-0.135,-4.75E-02));
#184 = CARTESIAN_POINT('',(0.,-0.115,-4.75E-02));
#185 = CARTESIAN_POINT('',(6.E-02,-0.13,-4.75E-02));
#186 = CARTESIAN_POINT('',(0.12,-0.14,-4.75E-02));
#187 = CARTESIAN_POINT('',(0.18,-0.11,-4.75E-02));
#188 = CARTESIAN_POINT('',(0.22,-4.5E-02,-4.75E-02));
#189 = CARTESIAN_POINT('',(0.22,4.5E-02,-4.75E-02));
#190 = CARTESIAN_POINT('',(0.18,0.11,-4.75E-02));
#191 = CARTESIAN_POINT('',(0.12,0.14,-4.75E-02));
#192 = PCURVE('',#54,#193);
#193 = DEFINITIONAL_REPRESENTATION('',(#194),#198);
#194 = LINE('',#195,#196);
#195 = CARTESIAN_POINT('',(0.,0.));
#196 = VECTOR('',#197,1.);
#197 = DIRECTION('',(1.,0.));
#198 = ( GEOMETRIC_REPRESENTATION_CONTEXT(2) 
PARAMETRIC_REPRESENTATION_CONTEXT() REPRESENTATION_CONTEXT('2D SPACE',''
  ) );
#199 = PCURVE('',#200,#205);
#200 = PLANE('',#201);
#201 = AXIS2_PLACEMENT_3D('',#202,#203,#204);
#202 = CARTESIAN_POINT('',(-3.849575447355E-02,-2.624368389236E-18,
    -4.75E-02));
#203 = DIRECTION('',(0.,0.,1.));
#204 = DIRECTION('',(1.,0.,-0.));
#205 = DEFINITIONAL_REPRESENTATION('',(#206),#231);
#206 = B_SPLINE_CURVE_WITH_KNOTS('',3,(#207,#208,#209,#210,#211,#212,
    #213,#214,#215,#216,#217,#218,#219,#220,#221,#222,#223,#224,#225,
    #226,#227,#228,#229,#230),.UNSPECIFIED.,.T.,.F.,(1,1,1,1,1,1,1,1,1,1
    ,1,1,1,1,1,1,1,1,1,1,1,1,1,1,1,1,1,1),(-3.,-2.,-1.,0.,1.,2.,3.,4.,5.
    ,6.,7.,8.,9.,10.,11.,12.,13.,14.,15.,16.,17.,18.,19.,20.,21.,22.,23.
    ,24.),.UNIFORM_KNOTS.);
#207 = CARTESIAN_POINT('',(0.258495754474,4.5E-02));
#208 = CARTESIAN_POINT('',(0.218495754474,0.11));
#209 = CARTESIAN_POINT('',(0.158495754474,0.14));
#210 = CARTESIAN_POINT('',(9.849575447355E-02,0.13));
#211 = CARTESIAN_POINT('',(3.849575447355E-02,0.115));
#212 = CARTESIAN_POINT('',(-2.150424552645E-02,0.135));
#213 = CARTESIAN_POINT('',(-8.150424552645E-02,0.175));
#214 = CARTESIAN_POINT('',(-0.141504245526,0.185));
#215 = CARTESIAN_POINT('',(-0.201504245526,0.14));
#216 = CARTESIAN_POINT('',(-0.221504245526,7.E-02));
#217 = CARTESIAN_POINT('',(-0.231504245526,2.624368389236E-18));
#218 = CARTESIAN_POINT('',(-0.221504245526,-7.E-02));
#219 = CARTESIAN_POINT('',(-0.201504245526,-0.14));
#220 = CARTESIAN_POINT('',(-0.141504245526,-0.185));
#221 = CARTESIAN_POINT('',(-8.150424552645E-02,-0.175));
#222 = CARTESIAN_POINT('',(-2.150424552645E-02,-0.135));
#223 = CARTESIAN_POINT('',(3.849575447355E-02,-0.115));
#224 = CARTESIAN_POINT('',(9.849575447355E-02,-0.13));
#225 = CARTESIAN_POINT('',(0.158495754474,-0.14));
#226 = CARTESIAN_POINT('',(0.218495754474,-0.11));
#227 = CARTESIAN_POINT('',(0.258495754474,-4.5E-02));
#228 = CARTESIAN_POINT('',(0.258495754474,4.5E-02));
#229 = CARTESIAN_POINT('',(0.218495754474,0.11));
#230 = CARTESIAN_POINT('',(0.158495754474,0.14));
#231 = ( GEOMETRIC_REPRESENTATION_CONTEXT(2) 
PARAMETRIC_REPRESENTATION_CONTEXT() REPRESENTATION_CONTEXT('2D SPACE',''
  ) );
#232 = ADVANCED_FACE('',(#233),#200,.F.);
#233 = FACE_BOUND('',#234,.F.);
#234 = EDGE_LOOP('',(#235));
#235 = ORIENTED_EDGE('',*,*,#165,.T.);
#236 = ADVANCED_FACE('',(#237),#131,.T.);
#237 = FACE_BOUND('',#238,.T.);
#238 = EDGE_LOOP('',(#239));
#239 = ORIENTED_EDGE('',*,*,#96,.T.);
#240 = ( GEOMETRIC_REPRESENTATION_CONTEXT(3) 
GLOBAL_UNCERTAINTY_ASSIGNED_CONTEXT((#244)) GLOBAL_UNIT_ASSIGNED_CONTEXT
((#241,#242,#243)) REPRESENTATION_CONTEXT('Context #1',
  '3D Context with UNIT and UNCERTAINTY') );
#241 = ( LENGTH_UNIT() NAMED_UNIT(*) SI_UNIT(.MILLI.,.METRE.) );
#242 = ( NAMED_UNIT(*) PLANE_ANGLE_UNIT() SI_UNIT($,.RADIAN.) );
#243 = ( NAMED_UNIT(*) SI_UNIT($,.STERADIAN.) SOLID_ANGLE_UNIT() );
#244 = UNCERTAINTY_MEASURE_WITH_UNIT(LENGTH_MEASURE(1.E-07),#241,
  'distance_accuracy_value','confusion accuracy');
#245 = CONTEXT_DEPENDENT_SHAPE_REPRESENTATION(#246,#248);
#246 = ( REPRESENTATION_RELATIONSHIP('','',#36,#10) 
REPRESENTATION_RELATIONSHIP_WITH_TRANSFORMATION(#247) 
SHAPE_REPRESENTATION_RELATIONSHIP() );
#247 = ITEM_DEFINED_TRANSFORMATION('','',#11,#15);
#248 = PRODUCT_DEFINITION_SHAPE('Placement','Placement of an item',#249
  );
#249 = NEXT_ASSEMBLY_USAGE_OCCURRENCE('1','','',#5,#31,$);
#250 = PRODUCT_RELATED_PRODUCT_CATEGORY('part',$,(#33));
#251 = SHAPE_DEFINITION_REPRESENTATION(#252,#258);
#252 = PRODUCT_DEFINITION_SHAPE('','',#253);
#253 = PRODUCT_DEFINITION('design','',#254,#257);
#254 = PRODUCT_DEFINITION_FORMATION('','',#255);
#255 = PRODUCT('Open CASCADE STEP translator 7.8 1.2',
  'Open CASCADE STEP translator 7.8 1.2','',(#256));
#256 = PRODUCT_CONTEXT('',#2,'mechanical');
#257 = PRODUCT_DEFINITION_CONTEXT('part definition',#2,'design');
#258 = GEOMETRICALLY_BOUNDED_WIREFRAME_SHAPE_REPRESENTATION('',(#11,#259
    ),#281);
#259 = GEOMETRIC_CURVE_SET('',(#260,#261,#262,#263,#264,#265,#266,#267,
    #268,#269,#270,#271,#272,#273,#274,#275,#276,#277,#278,#279,#280));
#260 = CARTESIAN_POINT('',(0.22,4.5E-02,0.));
#261 = CARTESIAN_POINT('',(0.18,0.11,0.));
#262 = CARTESIAN_POINT('',(0.12,0.14,0.));
#263 = CARTESIAN_POINT('',(6.E-02,0.13,0.));
#264 = CARTESIAN_POINT('',(0.,0.115,0.));
#265 = CARTESIAN_POINT('',(-6.E-02,0.135,0.));
#266 = CARTESIAN_POINT('',(-0.12,0.175,0.));
#267 = CARTESIAN_POINT('',(-0.18,0.185,0.));
#268 = CARTESIAN_POINT('',(-0.24,0.14,0.));
#269 = CARTESIAN_POINT('',(-0.26,7.E-02,0.));
#270 = CARTESIAN_POINT('',(-0.27,0.,0.));
#271 = CARTESIAN_POINT('',(-0.26,-7.E-02,0.));
#272 = CARTESIAN_POINT('',(-0.24,-0.14,0.));
#273 = CARTESIAN_POINT('',(-0.18,-0.185,0.));
#274 = CARTESIAN_POINT('',(-0.12,-0.175,0.));
#275 = CARTESIAN_POINT('',(-6.E-02,-0.135,0.));
#276 = CARTESIAN_POINT('',(0.,-0.115,0.));
#277 = CARTESIAN_POINT('',(6.E-02,-0.13,0.));
#278 = CARTESIAN_POINT('',(0.12,-0.14,0.));
#279 = CARTESIAN_POINT('',(0.18,-0.11,0.));
#280 = CARTESIAN_POINT('',(0.22,-4.5E-02,0.));
#281 = ( GEOMETRIC_REPRESENTATION_CONTEXT(3) 
GLOBAL_UNCERTAINTY_ASSIGNED_CONTEXT((#285)) GLOBAL_UNIT_ASSIGNED_CONTEXT
((#282,#283,#284)) REPRESENTATION_CONTEXT('Context #1',
  '3D Context with UNIT and UNCERTAINTY') );
#282 = ( LENGTH_UNIT() NAMED_UNIT(*) SI_UNIT(.MILLI.,.METRE.) );
#283 = ( NAMED_UNIT(*) PLANE_ANGLE_UNIT() SI_UNIT($,.RADIAN.) );
#284 = ( NAMED_UNIT(*) SI_UNIT($,.STERADIAN.) SOLID_ANGLE_UNIT() );
#285 = UNCERTAINTY_MEASURE_WITH_UNIT(LENGTH_MEASURE(1.E-07),#282,
  'distance_accuracy_value','confusion accuracy');
#286 = CONTEXT_DEPENDENT_SHAPE_REPRESENTATION(#287,#289);
#287 = ( REPRESENTATION_RELATIONSHIP('','',#258,#10) 
REPRESENTATION_RELATIONSHIP_WITH_TRANSFORMATION(#288) 
SHAPE_REPRESENTATION_RELATIONSHIP() );
#288 = ITEM_DEFINED_TRANSFORMATION('','',#11,#19);
#289 = PRODUCT_DEFINITION_SHAPE('Placement','Placement of an item',#290
  );
#290 = NEXT_ASSEMBLY_USAGE_OCCURRENCE('2','','',#5,#253,$);
#291 = PRODUCT_RELATED_PRODUCT_CATEGORY('part',$,(#255));
ENDSEC;
END-ISO-10303-21;
